<svg width="183" height="183" viewBox="0 0 183 183" fill="none" xmlns="http://www.w3.org/2000/svg">
<path d="M91.0625 11C46.9137 11 11 46.9137 11 91.0625C11 135.211 46.9137 171.125 91.0625 171.125C135.211 171.125 171.125 135.211 171.125 91.0625C171.125 46.9137 135.211 11 91.0625 11ZM91.0625 159.688C53.2158 159.688 22.4375 128.909 22.4375 91.0625C22.4375 53.2158 53.2158 22.4375 91.0625 22.4375C128.909 22.4375 159.688 53.2158 159.688 91.0625C159.688 128.909 128.909 159.688 91.0625 159.688ZM123.705 66.5176L99.1603 91.0625L123.705 115.607C124.777 116.681 125.379 118.137 125.378 119.655C125.377 121.172 124.773 122.627 123.699 123.699C122.626 124.772 121.17 125.374 119.652 125.372C118.135 125.371 116.68 124.768 115.607 123.694L91.0625 99.1488L66.5176 123.694C65.9864 124.226 65.3553 124.649 64.6606 124.937C63.9658 125.225 63.221 125.374 62.4688 125.374C61.7165 125.374 60.9717 125.225 60.2769 124.937C59.5822 124.649 58.9511 124.226 58.4199 123.694C57.3478 122.621 56.7455 121.167 56.7455 119.651C56.7455 118.134 57.3478 116.68 58.4199 115.607L82.9647 91.0625L58.4199 66.5176C57.3782 65.4391 56.8017 63.9945 56.8148 62.495C56.8278 60.9956 57.4292 59.5613 58.4895 58.501C59.5498 57.4407 60.9842 56.8392 62.4836 56.8262C63.9831 56.8132 65.4276 57.3896 66.5062 58.4313L91.0511 82.9762L115.596 58.4313C116.675 57.3896 118.119 56.8132 119.619 56.8262C121.118 56.8392 122.552 57.4407 123.613 58.501C124.673 59.5613 125.274 60.9956 125.287 62.495C125.3 63.9945 124.724 65.4391 123.682 66.5176H123.705Z" fill="#C0392B"/>
</svg>
